<?xml version="1.0" standalone="no"?>
<!DOCTYPE svg PUBLIC "-//W3C//DTD SVG 20010904//EN"
 "http://www.w3.org/TR/2001/REC-SVG-20010904/DTD/svg10.dtd">
<svg version="1.0" xmlns="http://www.w3.org/2000/svg"
 width="795.000000pt" height="795.000000pt" viewBox="0 0 795.000000 795.000000"
 preserveAspectRatio="xMidYMid meet">
<metadata>
Created by potrace 1.11, written by Peter Selinger 2001-2013
</metadata>
<g transform="translate(0.000000,795.000000) scale(0.100000,-0.100000)"
fill="#000000" stroke="none">
<path d="M3758 7945 c-2 -2 -42 -6 -90 -9 -48 -3 -102 -8 -120 -10 -18 -3 -53
-7 -78 -10 -217 -27 -556 -104 -770 -177 -300 -101 -647 -270 -899 -438 -46
-31 -91 -60 -99 -66 -9 -5 -22 -16 -30 -23 -7 -6 -23 -17 -34 -23 -11 -6 -27
-17 -36 -24 -252 -203 -338 -278 -452 -396 -271 -279 -416 -470 -632 -834
-121 -204 -254 -512 -342 -797 -54 -175 -127 -506 -141 -643 -4 -33 -9 -71
-11 -85 -18 -110 -25 -574 -12 -745 21 -254 68 -522 132 -745 9 -30 18 -64 20
-75 5 -23 82 -250 95 -280 5 -11 28 -67 52 -125 93 -224 219 -461 352 -660 63
-94 242 -337 258 -350 3 -3 33 -36 66 -75 129 -151 338 -348 522 -495 450
-357 1005 -627 1541 -749 128 -30 328 -66 420 -77 25 -3 58 -7 75 -9 101 -13
226 -19 420 -19 309 0 424 9 720 60 532 91 1101 327 1555 644 271 190 533 425
736 662 49 56 91 105 94 108 7 6 143 191 185 251 38 55 161 252 199 321 53 94
172 350 218 468 81 206 171 511 202 685 3 17 8 39 10 50 2 11 7 40 11 65 4 25
9 52 10 60 2 9 6 43 10 75 4 33 8 71 10 85 26 185 26 738 1 867 -3 12 -7 49
-11 82 -3 33 -8 70 -10 83 -3 13 -7 34 -9 48 -3 14 -8 41 -10 60 -8 49 -16 91
-36 175 -6 28 -13 57 -15 65 -59 275 -233 717 -396 1003 -236 413 -480 712
-865 1058 -54 49 -267 214 -340 264 -349 239 -751 431 -1134 542 -99 29 -305
78 -370 88 -25 4 -54 9 -65 11 -11 3 -36 7 -55 10 -19 3 -46 7 -60 10 -31 5
-152 21 -240 30 -64 6 -546 14 -552 9z"/>
</g>
</svg>
